<svg id="visual" viewBox="0 0 900 100" width="900" height="100" xmlns="http://www.w3.org/2000/svg" xmlns:xlink="http://www.w3.org/1999/xlink" version="1.1"><rect x="0" y="0" width="900" height="100" fill="#89B782"></rect><path d="M0 39L8.3 39.5C16.7 40 33.3 41 50 41.2C66.7 41.3 83.3 40.7 100 36.2C116.7 31.7 133.3 23.3 150 22.2C166.7 21 183.3 27 200 27.3C216.7 27.7 233.3 22.3 250 24.3C266.7 26.3 283.3 35.7 300 40.2C316.7 44.7 333.3 44.3 350 41C366.7 37.7 383.3 31.3 400 30.5C416.7 29.7 433.3 34.3 450 34.3C466.7 34.3 483.3 29.7 500 30.5C516.7 31.3 533.3 37.7 550 36.7C566.7 35.7 583.3 27.3 600 25.7C616.7 24 633.3 29 650 32.7C666.7 36.3 683.3 38.7 700 36.3C716.7 34 733.3 27 750 23.2C766.7 19.3 783.3 18.7 800 22.5C816.7 26.3 833.3 34.7 850 38.8C866.7 43 883.3 43 891.7 43L900 43L900 101L891.7 101C883.3 101 866.7 101 850 101C833.3 101 816.7 101 800 101C783.3 101 766.7 101 750 101C733.3 101 716.7 101 700 101C683.3 101 666.7 101 650 101C633.3 101 616.7 101 600 101C583.3 101 566.7 101 550 101C533.3 101 516.7 101 500 101C483.3 101 466.7 101 450 101C433.3 101 416.7 101 400 101C383.3 101 366.7 101 350 101C333.3 101 316.7 101 300 101C283.3 101 266.7 101 250 101C233.3 101 216.7 101 200 101C183.3 101 166.7 101 150 101C133.3 101 116.7 101 100 101C83.3 101 66.7 101 50 101C33.3 101 16.7 101 8.3 101L0 101Z" fill="#a4c0c8"></path><path d="M0 30L8.3 29.8C16.7 29.7 33.3 29.3 50 30.3C66.7 31.3 83.3 33.7 100 37.3C116.7 41 133.3 46 150 44C166.7 42 183.3 33 200 28.7C216.7 24.3 233.3 24.7 250 27.8C266.7 31 283.3 37 300 39.3C316.7 41.7 333.3 40.3 350 40.2C366.7 40 383.3 41 400 39.7C416.7 38.3 433.3 34.7 450 35.8C466.7 37 483.3 43 500 43.7C516.7 44.3 533.3 39.7 550 36.2C566.7 32.7 583.3 30.3 600 31.7C616.7 33 633.3 38 650 41C666.7 44 683.3 45 700 41.8C716.7 38.7 733.3 31.3 750 28.8C766.7 26.3 783.3 28.7 800 30.2C816.7 31.7 833.3 32.3 850 35.5C866.7 38.7 883.3 44.3 891.7 47.2L900 50L900 101L891.7 101C883.3 101 866.7 101 850 101C833.3 101 816.7 101 800 101C783.3 101 766.7 101 750 101C733.3 101 716.7 101 700 101C683.3 101 666.7 101 650 101C633.3 101 616.7 101 600 101C583.3 101 566.7 101 550 101C533.3 101 516.7 101 500 101C483.3 101 466.7 101 450 101C433.3 101 416.7 101 400 101C383.3 101 366.7 101 350 101C333.3 101 316.7 101 300 101C283.3 101 266.7 101 250 101C233.3 101 216.7 101 200 101C183.3 101 166.7 101 150 101C133.3 101 116.7 101 100 101C83.3 101 66.7 101 50 101C33.3 101 16.7 101 8.3 101L0 101Z" fill="#92b3bc"></path><path d="M0 31L8.3 33C16.7 35 33.3 39 50 41C66.7 43 83.3 43 100 41.7C116.7 40.3 133.3 37.7 150 37C166.7 36.3 183.3 37.7 200 37.5C216.7 37.3 233.3 35.7 250 37.3C266.7 39 283.3 44 300 46.8C316.7 49.7 333.3 50.3 350 47C366.7 43.7 383.3 36.3 400 37.5C416.7 38.7 433.3 48.3 450 50.2C466.7 52 483.3 46 500 44.8C516.7 43.7 533.3 47.3 550 48.8C566.7 50.3 583.3 49.7 600 47.8C616.7 46 633.3 43 650 41.2C666.7 39.3 683.3 38.7 700 38.5C716.7 38.3 733.3 38.7 750 38.7C766.7 38.7 783.3 38.3 800 40C816.7 41.7 833.3 45.3 850 47.8C866.7 50.3 883.3 51.7 891.7 52.3L900 53L900 101L891.7 101C883.3 101 866.7 101 850 101C833.3 101 816.7 101 800 101C783.3 101 766.7 101 750 101C733.3 101 716.7 101 700 101C683.3 101 666.7 101 650 101C633.3 101 616.7 101 600 101C583.3 101 566.7 101 550 101C533.3 101 516.7 101 500 101C483.3 101 466.7 101 450 101C433.3 101 416.7 101 400 101C383.3 101 366.7 101 350 101C333.3 101 316.7 101 300 101C283.3 101 266.7 101 250 101C233.3 101 216.7 101 200 101C183.3 101 166.7 101 150 101C133.3 101 116.7 101 100 101C83.3 101 66.7 101 50 101C33.3 101 16.7 101 8.3 101L0 101Z" fill="#81a5b1"></path><path d="M0 60L8.3 57.2C16.7 54.3 33.3 48.7 50 47.2C66.7 45.7 83.3 48.3 100 48.2C116.7 48 133.3 45 150 46.2C166.7 47.3 183.3 52.7 200 53.7C216.7 54.7 233.3 51.3 250 50C266.7 48.7 283.3 49.3 300 48.2C316.7 47 333.3 44 350 45.7C366.7 47.3 383.3 53.7 400 57C416.7 60.3 433.3 60.7 450 58.5C466.7 56.3 483.3 51.7 500 51.8C516.7 52 533.3 57 550 56.5C566.7 56 583.3 50 600 49.5C616.7 49 633.3 54 650 57C666.7 60 683.3 61 700 57.7C716.7 54.3 733.3 46.7 750 44.8C766.7 43 783.3 47 800 46.8C816.7 46.7 833.3 42.3 850 40.5C866.7 38.7 883.3 39.3 891.7 39.7L900 40L900 101L891.7 101C883.3 101 866.7 101 850 101C833.3 101 816.7 101 800 101C783.3 101 766.7 101 750 101C733.3 101 716.7 101 700 101C683.3 101 666.7 101 650 101C633.3 101 616.7 101 600 101C583.3 101 566.7 101 550 101C533.3 101 516.7 101 500 101C483.3 101 466.7 101 450 101C433.3 101 416.7 101 400 101C383.3 101 366.7 101 350 101C333.3 101 316.7 101 300 101C283.3 101 266.7 101 250 101C233.3 101 216.7 101 200 101C183.3 101 166.7 101 150 101C133.3 101 116.7 101 100 101C83.3 101 66.7 101 50 101C33.3 101 16.7 101 8.3 101L0 101Z" fill="#7098a5"></path><path d="M0 65L8.3 63.3C16.7 61.7 33.3 58.3 50 56C66.7 53.7 83.3 52.3 100 54.8C116.7 57.3 133.3 63.7 150 65.3C166.7 67 183.3 64 200 62.3C216.7 60.7 233.3 60.3 250 59C266.7 57.7 283.3 55.3 300 56.7C316.7 58 333.3 63 350 65C366.7 67 383.3 66 400 66.3C416.7 66.7 433.3 68.3 450 66.3C466.7 64.3 483.3 58.7 500 56.7C516.7 54.7 533.3 56.3 550 56.2C566.7 56 583.3 54 600 56.2C616.7 58.3 633.3 64.7 650 67.2C666.7 69.7 683.3 68.3 700 64.8C716.7 61.3 733.3 55.7 750 54.3C766.7 53 783.3 56 800 59.3C816.7 62.7 833.3 66.3 850 64.8C866.7 63.3 883.3 56.7 891.7 53.3L900 50L900 101L891.7 101C883.3 101 866.7 101 850 101C833.3 101 816.7 101 800 101C783.3 101 766.7 101 750 101C733.3 101 716.7 101 700 101C683.3 101 666.7 101 650 101C633.3 101 616.7 101 600 101C583.3 101 566.7 101 550 101C533.3 101 516.7 101 500 101C483.3 101 466.7 101 450 101C433.3 101 416.7 101 400 101C383.3 101 366.7 101 350 101C333.3 101 316.7 101 300 101C283.3 101 266.7 101 250 101C233.3 101 216.7 101 200 101C183.3 101 166.7 101 150 101C133.3 101 116.7 101 100 101C83.3 101 66.7 101 50 101C33.3 101 16.7 101 8.3 101L0 101Z" fill="#5e8b9a"></path><path d="M0 63L8.3 62.2C16.7 61.3 33.3 59.7 50 61.8C66.7 64 83.3 70 100 69.7C116.7 69.3 133.3 62.7 150 62.8C166.7 63 183.3 70 200 71.8C216.7 73.7 233.3 70.3 250 67.2C266.7 64 283.3 61 300 59.7C316.7 58.3 333.3 58.7 350 59.5C366.7 60.3 383.3 61.7 400 62C416.7 62.3 433.3 61.7 450 63.7C466.7 65.7 483.3 70.3 500 70.2C516.7 70 533.3 65 550 64.3C566.7 63.7 583.3 67.3 600 67.7C616.7 68 633.3 65 650 64C666.7 63 683.3 64 700 65.2C716.7 66.3 733.3 67.7 750 67.5C766.7 67.3 783.3 65.7 800 66.7C816.7 67.7 833.3 71.3 850 71.7C866.7 72 883.3 69 891.7 67.5L900 66L900 101L891.7 101C883.3 101 866.7 101 850 101C833.3 101 816.7 101 800 101C783.3 101 766.7 101 750 101C733.3 101 716.7 101 700 101C683.3 101 666.7 101 650 101C633.3 101 616.7 101 600 101C583.3 101 566.7 101 550 101C533.3 101 516.7 101 500 101C483.3 101 466.7 101 450 101C433.3 101 416.7 101 400 101C383.3 101 366.7 101 350 101C333.3 101 316.7 101 300 101C283.3 101 266.7 101 250 101C233.3 101 216.7 101 200 101C183.3 101 166.7 101 150 101C133.3 101 116.7 101 100 101C83.3 101 66.7 101 50 101C33.3 101 16.7 101 8.3 101L0 101Z" fill="#4c7e8f"></path><path d="M0 82L8.3 80.2C16.7 78.3 33.3 74.7 50 73.3C66.7 72 83.3 73 100 73C116.7 73 133.3 72 150 73.2C166.7 74.3 183.3 77.7 200 77.8C216.7 78 233.3 75 250 72.8C266.7 70.7 283.3 69.3 300 69.2C316.7 69 333.3 70 350 70.7C366.7 71.3 383.3 71.7 400 72.8C416.7 74 433.3 76 450 76.7C466.7 77.3 483.3 76.7 500 74.7C516.7 72.7 533.3 69.3 550 68.5C566.7 67.7 583.3 69.3 600 69.8C616.7 70.3 633.3 69.7 650 69.8C666.7 70 683.3 71 700 72.3C716.7 73.7 733.3 75.3 750 74.3C766.7 73.3 783.3 69.7 800 68.7C816.7 67.7 833.3 69.3 850 70.8C866.7 72.3 883.3 73.7 891.7 74.3L900 75L900 101L891.7 101C883.3 101 866.7 101 850 101C833.3 101 816.7 101 800 101C783.3 101 766.7 101 750 101C733.3 101 716.7 101 700 101C683.3 101 666.7 101 650 101C633.3 101 616.7 101 600 101C583.3 101 566.7 101 550 101C533.3 101 516.7 101 500 101C483.3 101 466.7 101 450 101C433.3 101 416.7 101 400 101C383.3 101 366.7 101 350 101C333.3 101 316.7 101 300 101C283.3 101 266.7 101 250 101C233.3 101 216.7 101 200 101C183.3 101 166.7 101 150 101C133.3 101 116.7 101 100 101C83.3 101 66.7 101 50 101C33.3 101 16.7 101 8.3 101L0 101Z" fill="#397184"></path><path d="M0 80L8.3 81C16.7 82 33.3 84 50 84.5C66.7 85 83.3 84 100 84.5C116.7 85 133.3 87 150 86.5C166.7 86 183.3 83 200 82C216.7 81 233.3 82 250 83.5C266.7 85 283.3 87 300 87.7C316.7 88.3 333.3 87.7 350 85.5C366.7 83.3 383.3 79.7 400 79.8C416.7 80 433.3 84 450 85.5C466.7 87 483.3 86 500 85.2C516.7 84.3 533.3 83.7 550 83.2C566.7 82.7 583.3 82.3 600 81.8C616.7 81.3 633.3 80.7 650 79.7C666.7 78.7 683.3 77.3 700 76.8C716.7 76.3 733.3 76.7 750 78.2C766.7 79.7 783.3 82.3 800 82.2C816.7 82 833.3 79 850 79.3C866.7 79.7 883.3 83.3 891.7 85.2L900 87L900 101L891.7 101C883.3 101 866.7 101 850 101C833.3 101 816.7 101 800 101C783.3 101 766.7 101 750 101C733.3 101 716.7 101 700 101C683.3 101 666.7 101 650 101C633.3 101 616.7 101 600 101C583.3 101 566.7 101 550 101C533.3 101 516.7 101 500 101C483.3 101 466.7 101 450 101C433.3 101 416.7 101 400 101C383.3 101 366.7 101 350 101C333.3 101 316.7 101 300 101C283.3 101 266.7 101 250 101C233.3 101 216.7 101 200 101C183.3 101 166.7 101 150 101C133.3 101 116.7 101 100 101C83.3 101 66.7 101 50 101C33.3 101 16.7 101 8.3 101L0 101Z" fill="#246479"></path><path d="M0 85L8.3 86.7C16.7 88.3 33.3 91.7 50 93.2C66.7 94.7 83.3 94.3 100 93.7C116.7 93 133.3 92 150 91.7C166.7 91.3 183.3 91.7 200 91.7C216.7 91.7 233.3 91.3 250 91.5C266.7 91.7 283.3 92.3 300 91.3C316.7 90.3 333.3 87.7 350 86.2C366.7 84.7 383.3 84.3 400 84.5C416.7 84.7 433.3 85.3 450 86.8C466.7 88.3 483.3 90.7 500 90.3C516.7 90 533.3 87 550 86C566.7 85 583.3 86 600 86.5C616.7 87 633.3 87 650 86.7C666.7 86.3 683.3 85.7 700 86.8C716.7 88 733.3 91 750 92.5C766.7 94 783.3 94 800 92.3C816.7 90.7 833.3 87.3 850 86.3C866.7 85.3 883.3 86.7 891.7 87.3L900 88L900 101L891.7 101C883.3 101 866.7 101 850 101C833.3 101 816.7 101 800 101C783.3 101 766.7 101 750 101C733.3 101 716.7 101 700 101C683.3 101 666.7 101 650 101C633.3 101 616.7 101 600 101C583.3 101 566.7 101 550 101C533.3 101 516.7 101 500 101C483.3 101 466.7 101 450 101C433.3 101 416.7 101 400 101C383.3 101 366.7 101 350 101C333.3 101 316.7 101 300 101C283.3 101 266.7 101 250 101C233.3 101 216.7 101 200 101C183.3 101 166.7 101 150 101C133.3 101 116.7 101 100 101C83.3 101 66.7 101 50 101C33.3 101 16.7 101 8.3 101L0 101Z" fill="#02586f"></path></svg>