<svg id="visual" viewBox="0 0 900 100" width="900" height="100" xmlns="http://www.w3.org/2000/svg" xmlns:xlink="http://www.w3.org/1999/xlink" version="1.1"><rect x="0" y="0" width="900" height="100" fill="#ffffff"></rect><path d="M0 54L12.5 53.2C25 52.3 50 50.7 75 45C100 39.3 125 29.7 150 24.5C175 19.3 200 18.7 225 18.8C250 19 275 20 300 21.5C325 23 350 25 375 27.2C400 29.3 425 31.7 450 34C475 36.3 500 38.7 525 40.5C550 42.3 575 43.7 600 41.7C625 39.7 650 34.3 675 35.3C700 36.3 725 43.7 750 42C775 40.3 800 29.7 825 26.8C850 24 875 29 887.5 31.5L900 34L900 101L887.5 101C875 101 850 101 825 101C800 101 775 101 750 101C725 101 700 101 675 101C650 101 625 101 600 101C575 101 550 101 525 101C500 101 475 101 450 101C425 101 400 101 375 101C350 101 325 101 300 101C275 101 250 101 225 101C200 101 175 101 150 101C125 101 100 101 75 101C50 101 25 101 12.5 101L0 101Z" fill="#969696"></path><path d="M0 33L12.5 33.5C25 34 50 35 75 38C100 41 125 46 150 47.8C175 49.7 200 48.3 225 48.8C250 49.3 275 51.7 300 53.5C325 55.3 350 56.7 375 57.3C400 58 425 58 450 55.7C475 53.3 500 48.7 525 47.7C550 46.7 575 49.3 600 51.7C625 54 650 56 675 57C700 58 725 58 750 54.5C775 51 800 44 825 41.3C850 38.7 875 40.3 887.5 41.2L900 42L900 101L887.5 101C875 101 850 101 825 101C800 101 775 101 750 101C725 101 700 101 675 101C650 101 625 101 600 101C575 101 550 101 525 101C500 101 475 101 450 101C425 101 400 101 375 101C350 101 325 101 300 101C275 101 250 101 225 101C200 101 175 101 150 101C125 101 100 101 75 101C50 101 25 101 12.5 101L0 101Z" fill="#777777"></path><path d="M0 72L12.5 71.3C25 70.7 50 69.3 75 65.8C100 62.3 125 56.7 150 53C175 49.3 200 47.7 225 48C250 48.3 275 50.7 300 54.7C325 58.7 350 64.3 375 65.2C400 66 425 62 450 60.7C475 59.3 500 60.7 525 60.2C550 59.7 575 57.3 600 58.2C625 59 650 63 675 63.2C700 63.3 725 59.7 750 57C775 54.3 800 52.7 825 55.2C850 57.7 875 64.3 887.5 67.7L900 71L900 101L887.5 101C875 101 850 101 825 101C800 101 775 101 750 101C725 101 700 101 675 101C650 101 625 101 600 101C575 101 550 101 525 101C500 101 475 101 450 101C425 101 400 101 375 101C350 101 325 101 300 101C275 101 250 101 225 101C200 101 175 101 150 101C125 101 100 101 75 101C50 101 25 101 12.5 101L0 101Z" fill="#5a5a5a"></path><path d="M0 77L12.5 74.3C25 71.7 50 66.3 75 66.3C100 66.3 125 71.7 150 75C175 78.3 200 79.7 225 78.5C250 77.3 275 73.7 300 73.2C325 72.7 350 75.3 375 75.8C400 76.3 425 74.7 450 74.7C475 74.7 500 76.3 525 76.8C550 77.3 575 76.7 600 75.7C625 74.7 650 73.3 675 73C700 72.7 725 73.3 750 72.7C775 72 800 70 825 67.7C850 65.3 875 62.7 887.5 61.3L900 60L900 101L887.5 101C875 101 850 101 825 101C800 101 775 101 750 101C725 101 700 101 675 101C650 101 625 101 600 101C575 101 550 101 525 101C500 101 475 101 450 101C425 101 400 101 375 101C350 101 325 101 300 101C275 101 250 101 225 101C200 101 175 101 150 101C125 101 100 101 75 101C50 101 25 101 12.5 101L0 101Z" fill="#3f3f3f"></path><path d="M0 88L12.5 86.2C25 84.3 50 80.7 75 80.8C100 81 125 85 150 87.2C175 89.3 200 89.7 225 89C250 88.3 275 86.7 300 85.7C325 84.7 350 84.3 375 84.3C400 84.3 425 84.7 450 85.2C475 85.7 500 86.3 525 86C550 85.7 575 84.3 600 84.3C625 84.3 650 85.7 675 86C700 86.3 725 85.7 750 85.8C775 86 800 87 825 85.8C850 84.7 875 81.3 887.5 79.7L900 78L900 101L887.5 101C875 101 850 101 825 101C800 101 775 101 750 101C725 101 700 101 675 101C650 101 625 101 600 101C575 101 550 101 525 101C500 101 475 101 450 101C425 101 400 101 375 101C350 101 325 101 300 101C275 101 250 101 225 101C200 101 175 101 150 101C125 101 100 101 75 101C50 101 25 101 12.5 101L0 101Z" fill="#252525"></path></svg>