<svg id="visual" viewBox="0 0 900 100" width="900" height="100" xmlns="http://www.w3.org/2000/svg" xmlns:xlink="http://www.w3.org/1999/xlink" version="1.1"><rect x="0" y="0" width="900" height="100" fill="#252525"></rect><path d="M0 31L12.5 32.8C25 34.7 50 38.3 75 35.8C100 33.3 125 24.7 150 20C175 15.3 200 14.7 225 20.3C250 26 275 38 300 41.5C325 45 350 40 375 36.3C400 32.7 425 30.3 450 26.5C475 22.7 500 17.3 525 18.3C550 19.3 575 26.7 600 30C625 33.3 650 32.7 675 32C700 31.3 725 30.7 750 34C775 37.3 800 44.7 825 43.3C850 42 875 32 887.5 27L900 22L900 101L887.5 101C875 101 850 101 825 101C800 101 775 101 750 101C725 101 700 101 675 101C650 101 625 101 600 101C575 101 550 101 525 101C500 101 475 101 450 101C425 101 400 101 375 101C350 101 325 101 300 101C275 101 250 101 225 101C200 101 175 101 150 101C125 101 100 101 75 101C50 101 25 101 12.5 101L0 101Z" fill="#3a4d47"></path><path d="M0 59L12.5 59.3C25 59.7 50 60.3 75 55C100 49.7 125 38.3 150 37.2C175 36 200 45 225 50C250 55 275 56 300 51.7C325 47.3 350 37.7 375 35.7C400 33.7 425 39.3 450 44.8C475 50.3 500 55.7 525 52.7C550 49.7 575 38.3 600 33.5C625 28.7 650 30.3 675 35.8C700 41.3 725 50.7 750 49.3C775 48 800 36 825 34.3C850 32.7 875 41.3 887.5 45.7L900 50L900 101L887.5 101C875 101 850 101 825 101C800 101 775 101 750 101C725 101 700 101 675 101C650 101 625 101 600 101C575 101 550 101 525 101C500 101 475 101 450 101C425 101 400 101 375 101C350 101 325 101 300 101C275 101 250 101 225 101C200 101 175 101 150 101C125 101 100 101 75 101C50 101 25 101 12.5 101L0 101Z" fill="#465e57"></path><path d="M0 38L12.5 42.3C25 46.7 50 55.3 75 55.7C100 56 125 48 150 47.5C175 47 200 54 225 53.2C250 52.3 275 43.7 300 40.7C325 37.7 350 40.3 375 45.3C400 50.3 425 57.7 450 58.3C475 59 500 53 525 48.5C550 44 575 41 600 40C625 39 650 40 675 41.7C700 43.3 725 45.7 750 49.5C775 53.3 800 58.7 825 59.5C850 60.3 875 56.7 887.5 54.8L900 53L900 101L887.5 101C875 101 850 101 825 101C800 101 775 101 750 101C725 101 700 101 675 101C650 101 625 101 600 101C575 101 550 101 525 101C500 101 475 101 450 101C425 101 400 101 375 101C350 101 325 101 300 101C275 101 250 101 225 101C200 101 175 101 150 101C125 101 100 101 75 101C50 101 25 101 12.5 101L0 101Z" fill="#526f67"></path><path d="M0 54L12.5 56.8C25 59.7 50 65.3 75 68.8C100 72.3 125 73.7 150 71.3C175 69 200 63 225 62.3C250 61.7 275 66.3 300 65.2C325 64 350 57 375 54.7C400 52.3 425 54.7 450 54.5C475 54.3 500 51.7 525 53.5C550 55.3 575 61.7 600 62.7C625 63.7 650 59.3 675 59.8C700 60.3 725 65.7 750 66.7C775 67.7 800 64.3 825 62.7C850 61 875 61 887.5 61L900 61L900 101L887.5 101C875 101 850 101 825 101C800 101 775 101 750 101C725 101 700 101 675 101C650 101 625 101 600 101C575 101 550 101 525 101C500 101 475 101 450 101C425 101 400 101 375 101C350 101 325 101 300 101C275 101 250 101 225 101C200 101 175 101 150 101C125 101 100 101 75 101C50 101 25 101 12.5 101L0 101Z" fill="#5e8177"></path><path d="M0 66L12.5 66.3C25 66.7 50 67.3 75 67.2C100 67 125 66 150 68.5C175 71 200 77 225 79.2C250 81.3 275 79.7 300 78C325 76.3 350 74.7 375 73.2C400 71.7 425 70.3 450 71.5C475 72.7 500 76.3 525 78.3C550 80.3 575 80.7 600 81.3C625 82 650 83 675 81.7C700 80.3 725 76.7 750 74.8C775 73 800 73 825 71.3C850 69.7 875 66.3 887.5 64.7L900 63L900 101L887.5 101C875 101 850 101 825 101C800 101 775 101 750 101C725 101 700 101 675 101C650 101 625 101 600 101C575 101 550 101 525 101C500 101 475 101 450 101C425 101 400 101 375 101C350 101 325 101 300 101C275 101 250 101 225 101C200 101 175 101 150 101C125 101 100 101 75 101C50 101 25 101 12.5 101L0 101Z" fill="#6b9488"></path><path d="M0 86L12.5 87C25 88 50 90 75 91.2C100 92.3 125 92.7 150 91.5C175 90.3 200 87.7 225 88C250 88.3 275 91.7 300 90.7C325 89.7 350 84.3 375 81C400 77.7 425 76.3 450 78C475 79.7 500 84.3 525 85.3C550 86.3 575 83.7 600 82.3C625 81 650 81 675 80C700 79 725 77 750 77.3C775 77.7 800 80.3 825 81.7C850 83 875 83 887.5 83L900 83L900 101L887.5 101C875 101 850 101 825 101C800 101 775 101 750 101C725 101 700 101 675 101C650 101 625 101 600 101C575 101 550 101 525 101C500 101 475 101 450 101C425 101 400 101 375 101C350 101 325 101 300 101C275 101 250 101 225 101C200 101 175 101 150 101C125 101 100 101 75 101C50 101 25 101 12.5 101L0 101Z" fill="#78a799"></path></svg>