<svg width="168" height="168" viewBox="0 0 168 168" fill="none" xmlns="http://www.w3.org/2000/svg">
<path fill-rule="evenodd" clip-rule="evenodd" d="M88.2012 88.3428L123.557 88.3428L128.607 93.3936L116.059 105.942L130.946 120.829L120.687 131.088L105.8 116.201L93.2519 128.749L88.2012 123.698L88.2012 88.3428Z" fill="black"/>
<path fill-rule="evenodd" clip-rule="evenodd" d="M79.8575 79.999L44.5021 79.999L39.4514 74.9482L51.9996 62.3999L37.1123 47.5127L47.3712 37.2538L62.2584 52.1411L74.8067 39.5929L79.8575 44.6436L79.8575 79.999Z" fill="black"/>
<path fill-rule="evenodd" clip-rule="evenodd" d="M79.8573 88.2011L79.8573 123.556L74.8066 128.607L62.2583 116.059L47.371 130.946L37.1122 120.687L51.9995 105.8L39.4512 93.2519L44.502 88.2011L79.8573 88.2011Z" fill="black"/>
<path fill-rule="evenodd" clip-rule="evenodd" d="M88.2012 79.8575L88.2012 44.5021L93.2519 39.4514L105.8 51.9996L120.687 37.1124L130.946 47.3712L116.059 62.2585L128.607 74.8067L123.557 79.8575L88.2012 79.8575Z" fill="black"/>
</svg>
