<svg width="140" height="140" viewBox="0 0 140 140" fill="none" xmlns="http://www.w3.org/2000/svg">
<path fill-rule="evenodd" clip-rule="evenodd" d="M42.2485 28.615L44.7774 26.0862L51.2616 32.5704L56.5301 27.302C58.3928 25.4392 60.6041 23.9617 63.0379 22.9536C65.4716 21.9455 68.0801 21.4266 70.7143 21.4266C73.3486 21.4266 75.9571 21.9455 78.3908 22.9536C80.8246 23.9617 83.0359 25.4393 84.8986 27.302L92.1934 34.5967L89.7618 37.0283C85.0607 32.3272 77.4417 32.3272 72.7407 37.0283L64.2301 45.5389L71.5249 52.8337L68.996 55.3625H42.2485V28.615Z" fill="black"/>
<path fill-rule="evenodd" clip-rule="evenodd" d="M28.9361 98.6184L26.4072 96.0896L32.8914 89.6053L27.623 84.3369C25.7603 82.4742 24.2827 80.2628 23.2746 77.8291C22.2665 75.3953 21.7477 72.7869 21.7477 70.1526C21.7477 67.5183 22.2665 64.9099 23.2746 62.4761C24.2827 60.0424 25.7603 57.831 27.623 55.9683L34.9178 48.6735L37.3494 51.1051C32.6483 55.8062 32.6483 63.4252 37.3494 68.1263L45.8599 76.6368L53.1547 69.3421L55.6836 71.8709V98.6184H28.9361Z" fill="black"/>
<path fill-rule="evenodd" clip-rule="evenodd" d="M111.931 42.2483L114.46 44.7771L107.976 51.2614L113.244 56.5298C115.107 58.3925 116.584 60.6039 117.593 63.0376C118.601 65.4714 119.12 68.0798 119.12 70.7141C119.12 73.3484 118.601 75.9568 117.593 78.3906C116.584 80.8243 115.107 83.0357 113.244 84.8984L105.949 92.1932L103.518 89.7616C108.219 85.0605 108.219 77.4415 103.518 72.7404L95.0073 64.2299L87.7125 71.5246L85.1836 68.9958V42.2483H111.931Z" fill="black"/>
<path fill-rule="evenodd" clip-rule="evenodd" d="M98.6186 111.61L96.0897 114.139L89.6055 107.655L84.337 112.923C82.4743 114.786 80.2629 116.263 77.8292 117.272C75.3955 118.28 72.787 118.798 70.1527 118.798C67.5185 118.798 64.91 118.28 62.4762 117.272C60.0425 116.263 57.8311 114.786 55.9684 112.923L48.6737 105.628L51.1053 103.197C55.8063 107.898 63.4253 107.898 68.1264 103.197L76.637 94.6862L69.3422 87.3914L71.871 84.8626H98.6186V111.61Z" fill="black"/>
</svg>
